<?xml version="1.0" encoding="utf-8"?>
<!-- Generator: Adobe Illustrator 24.1.3, SVG Export Plug-In . SVG Version: 6.00 Build 0)  -->
<svg version="1.1" id="Capa_1" xmlns="http://www.w3.org/2000/svg" xmlns:xlink="http://www.w3.org/1999/xlink" x="0px" y="0px"
	 viewBox="0 0 175.4 175.4" style="enable-background:new 0 0 175.4 175.4;" xml:space="preserve">
<style type="text/css">
	.st0{fill:#FFFFFF;}
</style>
<g>
	<g>
		<path class="st0" d="M123.9,49.2c9.1,0,16.5-7.4,16.5-16.5c0-9.1-7.4-16.5-16.5-16.5s-16.5,7.4-16.5,16.5S114.8,49.2,123.9,49.2z
			 M123.9,23.2c5.2,0,9.5,4.3,9.5,9.5c0,5.2-4.3,9.5-9.5,9.5c-5.2,0-9.5-4.3-9.5-9.5S118.6,23.2,123.9,23.2z"/>
		<path class="st0" d="M171.5,70.9l-16.1-26.4c-1-1.7-3.2-2.2-4.8-1.2c-1.6,1-2.2,3.2-1.2,4.8l16.2,26.4c0,0.1,0.1,0.1,0.1,0.2
			c0,0.1,4.4,6.5,2.1,14c-2.2,6.9-9.2,12.6-21.1,17.1c-36.7,13.8-23.5,50.8-23.4,51.2c0.5,1.4,2.7,2.7,4.5,2.1
			c1.8-0.6,2.7-2.7,2.1-4.5c-0.5-1.3-11-30.8,19.3-42.2c13.9-5.2,22.5-12.5,25.3-21.6C177.6,80.6,172.2,71.9,171.5,70.9z"/>
		<path class="st0" d="M106.9,93.7c-0.2-0.1-11.1-3.5-23.5-11.1c9.9-2.7,33.2-10,48.3-21.6l15.9,25.3c0.7,1.1,2.8,2.4,4.8,1.1
			c1.6-1.1,2.1-3.2,1.1-4.8l-18-28.7c-0.5-0.9-1.4-1.5-2.5-1.6c-1-0.1-2.1,0.2-2.8,0.8c-17.1,15.2-53.9,24.4-54.3,24.4
			c-10.6-7.8-21-18.7-25.7-33c-0.5-1.5-2-2.5-3.6-2.4c-1.6,0.1-2.9,1.3-3.2,2.8c0,0.1-1.9,9.9-9.7,16.7C23.3,70.8,6,83.1,5.9,83.2
			c-3.2,2.2-8.3,8.7-4.6,17.8c0.3,0.9,5.5,8.5,13.3,8.1c3-0.1,6.4-0.7,10.1-2.1l21.5-7.5c1.8-0.6,2.8-2.6,2.2-4.5
			c-0.6-1.8-2.6-2.8-4.5-2.2l-21.6,7.5c-11.8,4.3-14.5-1.9-14.5-2c-2.4-6,1.6-9.2,2.1-9.5c0.7-0.5,17.7-12.7,28.4-22
			c4.2-3.6,6.9-7.9,8.8-11.6c16,31.9,55.9,44.5,57.7,45.1c1.8,0.6,3.8-0.5,4.4-2.3C109.8,96.3,108.7,94.3,106.9,93.7z"/>
	</g>
</g>
</svg>
